<mxfile host="app.diagrams.net" modified="2023-10-25T18:31:29.817Z" agent="Mozilla/5.0 (Windows NT 10.0; Win64; x64) AppleWebKit/537.36 (KHTML, like Gecko) Chrome/118.0.0.0 Safari/537.36" etag="VgXbEfgBITAcwKlgKqlU" version="22.0.8" type="google">
  <diagram name="Page-1" id="V6MXZMqQAF5iamF5pHrl">
    <mxGraphModel grid="1" page="1" gridSize="10" guides="1" tooltips="1" connect="1" arrows="1" fold="1" pageScale="1" pageWidth="827" pageHeight="1169" math="0" shadow="0">
      <root>
        <mxCell id="0" />
        <mxCell id="1" parent="0" />
        <mxCell id="9onHXuLx7i9m2BNZTr_y-6" value="" style="shape=mxgraph.cisco.computers_and_peripherals.laptop;sketch=0;html=1;pointerEvents=1;dashed=0;fillColor=#036897;strokeColor=#ffffff;strokeWidth=2;verticalLabelPosition=bottom;verticalAlign=top;align=center;outlineConnect=0;" vertex="1" parent="1">
          <mxGeometry x="710" y="276.5" width="90" height="61" as="geometry" />
        </mxCell>
        <mxCell id="9onHXuLx7i9m2BNZTr_y-7" value="" style="shape=mxgraph.cisco.computers_and_peripherals.laptop;sketch=0;html=1;pointerEvents=1;dashed=0;fillColor=#036897;strokeColor=#ffffff;strokeWidth=2;verticalLabelPosition=bottom;verticalAlign=top;align=center;outlineConnect=0;" vertex="1" parent="1">
          <mxGeometry x="710" y="370" width="90" height="61" as="geometry" />
        </mxCell>
        <mxCell id="9onHXuLx7i9m2BNZTr_y-8" value="" style="shape=mxgraph.cisco.computers_and_peripherals.laptop;sketch=0;html=1;pointerEvents=1;dashed=0;fillColor=#036897;strokeColor=#ffffff;strokeWidth=2;verticalLabelPosition=bottom;verticalAlign=top;align=center;outlineConnect=0;" vertex="1" parent="1">
          <mxGeometry x="710" y="460" width="90" height="61" as="geometry" />
        </mxCell>
        <mxCell id="9onHXuLx7i9m2BNZTr_y-9" value="" style="shape=mxgraph.cisco.computers_and_peripherals.laptop;sketch=0;html=1;pointerEvents=1;dashed=0;fillColor=#036897;strokeColor=#ffffff;strokeWidth=2;verticalLabelPosition=bottom;verticalAlign=top;align=center;outlineConnect=0;" vertex="1" parent="1">
          <mxGeometry x="710" y="183" width="90" height="61" as="geometry" />
        </mxCell>
        <mxCell id="9onHXuLx7i9m2BNZTr_y-10" value="" style="shape=mxgraph.cisco.computers_and_peripherals.printer;sketch=0;html=1;pointerEvents=1;dashed=0;fillColor=#036897;strokeColor=#ffffff;strokeWidth=2;verticalLabelPosition=bottom;verticalAlign=top;align=center;outlineConnect=0;" vertex="1" parent="1">
          <mxGeometry x="460" y="600" width="106.5" height="46" as="geometry" />
        </mxCell>
        <mxCell id="9onHXuLx7i9m2BNZTr_y-11" value="" style="shape=mxgraph.cisco.computers_and_peripherals.macintosh;sketch=0;html=1;pointerEvents=1;dashed=0;fillColor=#036897;strokeColor=#ffffff;strokeWidth=2;verticalLabelPosition=bottom;verticalAlign=top;align=center;outlineConnect=0;" vertex="1" parent="1">
          <mxGeometry x="10" y="543" width="99" height="64" as="geometry" />
        </mxCell>
        <mxCell id="9onHXuLx7i9m2BNZTr_y-12" value="" style="shape=mxgraph.cisco.computers_and_peripherals.macintosh;sketch=0;html=1;pointerEvents=1;dashed=0;fillColor=#036897;strokeColor=#ffffff;strokeWidth=2;verticalLabelPosition=bottom;verticalAlign=top;align=center;outlineConnect=0;" vertex="1" parent="1">
          <mxGeometry x="10" y="430" width="99" height="64" as="geometry" />
        </mxCell>
        <mxCell id="9onHXuLx7i9m2BNZTr_y-13" value="" style="shape=mxgraph.cisco.computers_and_peripherals.macintosh;sketch=0;html=1;pointerEvents=1;dashed=0;fillColor=#036897;strokeColor=#ffffff;strokeWidth=2;verticalLabelPosition=bottom;verticalAlign=top;align=center;outlineConnect=0;" vertex="1" parent="1">
          <mxGeometry x="10" y="313" width="99" height="64" as="geometry" />
        </mxCell>
        <mxCell id="9onHXuLx7i9m2BNZTr_y-14" value="" style="shape=mxgraph.cisco.computers_and_peripherals.macintosh;sketch=0;html=1;pointerEvents=1;dashed=0;fillColor=#036897;strokeColor=#ffffff;strokeWidth=2;verticalLabelPosition=bottom;verticalAlign=top;align=center;outlineConnect=0;" vertex="1" parent="1">
          <mxGeometry x="10" y="200" width="99" height="64" as="geometry" />
        </mxCell>
        <mxCell id="9onHXuLx7i9m2BNZTr_y-15" value="" style="shape=mxgraph.cisco.computers_and_peripherals.macintosh;sketch=0;html=1;pointerEvents=1;dashed=0;fillColor=#036897;strokeColor=#ffffff;strokeWidth=2;verticalLabelPosition=bottom;verticalAlign=top;align=center;outlineConnect=0;" vertex="1" parent="1">
          <mxGeometry x="10" y="88" width="99" height="64" as="geometry" />
        </mxCell>
        <mxCell id="9onHXuLx7i9m2BNZTr_y-16" value="" style="shape=mxgraph.cisco.computers_and_peripherals.tablet;sketch=0;html=1;pointerEvents=1;dashed=0;fillColor=#036897;strokeColor=#ffffff;strokeWidth=2;verticalLabelPosition=bottom;verticalAlign=top;align=center;outlineConnect=0;" vertex="1" parent="1">
          <mxGeometry x="594.5" y="596" width="91" height="50" as="geometry" />
        </mxCell>
        <mxCell id="9onHXuLx7i9m2BNZTr_y-17" value="" style="points=[[0,0.58,0],[0.09,0.58,0],[0.36,0.39,0],[0.64,0.195,0],[0.91,0,0],[1,0,0],[1,0.25,0],[1,0.5,0],[1,0.75,0],[1,1,0],[0,1,0],[0.09,1,0],[0.36,1,0],[0.64,1,0],[0.91,1,0],[0,0.79,0]];verticalLabelPosition=bottom;sketch=0;html=1;verticalAlign=top;aspect=fixed;align=center;pointerEvents=1;shape=mxgraph.cisco19.wifi_indicator;fillColor=#005073;strokeColor=none;" vertex="1" parent="1">
          <mxGeometry x="700" y="190" width="20" height="20" as="geometry" />
        </mxCell>
        <mxCell id="9onHXuLx7i9m2BNZTr_y-18" value="" style="points=[[0,0.58,0],[0.09,0.58,0],[0.36,0.39,0],[0.64,0.195,0],[0.91,0,0],[1,0,0],[1,0.25,0],[1,0.5,0],[1,0.75,0],[1,1,0],[0,1,0],[0.09,1,0],[0.36,1,0],[0.64,1,0],[0.91,1,0],[0,0.79,0]];verticalLabelPosition=bottom;sketch=0;html=1;verticalAlign=top;aspect=fixed;align=center;pointerEvents=1;shape=mxgraph.cisco19.wifi_indicator;fillColor=#005073;strokeColor=none;" vertex="1" parent="1">
          <mxGeometry x="700" y="282" width="20" height="20" as="geometry" />
        </mxCell>
        <mxCell id="9onHXuLx7i9m2BNZTr_y-19" value="" style="points=[[0,0.58,0],[0.09,0.58,0],[0.36,0.39,0],[0.64,0.195,0],[0.91,0,0],[1,0,0],[1,0.25,0],[1,0.5,0],[1,0.75,0],[1,1,0],[0,1,0],[0.09,1,0],[0.36,1,0],[0.64,1,0],[0.91,1,0],[0,0.79,0]];verticalLabelPosition=bottom;sketch=0;html=1;verticalAlign=top;aspect=fixed;align=center;pointerEvents=1;shape=mxgraph.cisco19.wifi_indicator;fillColor=#005073;strokeColor=none;" vertex="1" parent="1">
          <mxGeometry x="700" y="370" width="20" height="20" as="geometry" />
        </mxCell>
        <mxCell id="9onHXuLx7i9m2BNZTr_y-20" value="" style="points=[[0,0.58,0],[0.09,0.58,0],[0.36,0.39,0],[0.64,0.195,0],[0.91,0,0],[1,0,0],[1,0.25,0],[1,0.5,0],[1,0.75,0],[1,1,0],[0,1,0],[0.09,1,0],[0.36,1,0],[0.64,1,0],[0.91,1,0],[0,0.79,0]];verticalLabelPosition=bottom;sketch=0;html=1;verticalAlign=top;aspect=fixed;align=center;pointerEvents=1;shape=mxgraph.cisco19.wifi_indicator;fillColor=#005073;strokeColor=none;" vertex="1" parent="1">
          <mxGeometry x="700" y="460" width="20" height="20" as="geometry" />
        </mxCell>
        <mxCell id="9onHXuLx7i9m2BNZTr_y-28" value="" style="points=[[0,0.58,0],[0.09,0.58,0],[0.36,0.39,0],[0.64,0.195,0],[0.91,0,0],[1,0,0],[1,0.25,0],[1,0.5,0],[1,0.75,0],[1,1,0],[0,1,0],[0.09,1,0],[0.36,1,0],[0.64,1,0],[0.91,1,0],[0,0.79,0]];verticalLabelPosition=bottom;sketch=0;html=1;verticalAlign=top;aspect=fixed;align=center;pointerEvents=1;shape=mxgraph.cisco19.wifi_indicator;fillColor=#005073;strokeColor=none;" vertex="1" parent="1">
          <mxGeometry x="625.5" y="565" width="20" height="20" as="geometry" />
        </mxCell>
        <mxCell id="9onHXuLx7i9m2BNZTr_y-30" value="" style="points=[[0,0.58,0],[0.09,0.58,0],[0.36,0.39,0],[0.64,0.195,0],[0.91,0,0],[1,0,0],[1,0.25,0],[1,0.5,0],[1,0.75,0],[1,1,0],[0,1,0],[0.09,1,0],[0.36,1,0],[0.64,1,0],[0.91,1,0],[0,0.79,0]];verticalLabelPosition=bottom;sketch=0;html=1;verticalAlign=top;aspect=fixed;align=center;pointerEvents=1;shape=mxgraph.cisco19.wifi_indicator;fillColor=#005073;strokeColor=none;" vertex="1" parent="1">
          <mxGeometry x="500" y="565" width="20" height="20" as="geometry" />
        </mxCell>
        <mxCell id="9onHXuLx7i9m2BNZTr_y-47" style="edgeStyle=orthogonalEdgeStyle;shape=link;rounded=0;orthogonalLoop=1;jettySize=auto;html=1;entryX=0.87;entryY=0.74;entryDx=0;entryDy=0;entryPerimeter=0;" edge="1" parent="1" source="9onHXuLx7i9m2BNZTr_y-32" target="9onHXuLx7i9m2BNZTr_y-34">
          <mxGeometry relative="1" as="geometry">
            <mxPoint x="519.9999999999998" y="370" as="targetPoint" />
            <Array as="points">
              <mxPoint x="580" y="260" />
              <mxPoint x="448" y="260" />
            </Array>
          </mxGeometry>
        </mxCell>
        <mxCell id="9onHXuLx7i9m2BNZTr_y-32" value="" style="shape=mxgraph.cisco.servers.fileserver;sketch=0;html=1;pointerEvents=1;dashed=0;fillColor=#036897;strokeColor=#ffffff;strokeWidth=2;verticalLabelPosition=bottom;verticalAlign=top;align=center;outlineConnect=0;" vertex="1" parent="1">
          <mxGeometry x="538.5" y="110" width="43" height="62" as="geometry" />
        </mxCell>
        <mxCell id="9onHXuLx7i9m2BNZTr_y-33" value="" style="shape=mxgraph.cisco.routers.content_service_router;sketch=0;html=1;pointerEvents=1;dashed=0;fillColor=#036897;strokeColor=#ffffff;strokeWidth=2;verticalLabelPosition=bottom;verticalAlign=top;align=center;outlineConnect=0;" vertex="1" parent="1">
          <mxGeometry x="306.5" y="10" width="78" height="53" as="geometry" />
        </mxCell>
        <mxCell id="9onHXuLx7i9m2BNZTr_y-40" style="edgeStyle=orthogonalEdgeStyle;shape=link;rounded=0;orthogonalLoop=1;jettySize=auto;html=1;exitX=0.16;exitY=0.23;exitDx=0;exitDy=0;exitPerimeter=0;entryX=0.87;entryY=1;entryDx=0;entryDy=0;entryPerimeter=0;" edge="1" parent="1" source="9onHXuLx7i9m2BNZTr_y-34" target="9onHXuLx7i9m2BNZTr_y-13">
          <mxGeometry relative="1" as="geometry">
            <mxPoint x="110" y="345" as="targetPoint" />
            <Array as="points">
              <mxPoint x="190" y="331" />
              <mxPoint x="190" y="397" />
              <mxPoint x="96" y="397" />
            </Array>
          </mxGeometry>
        </mxCell>
        <mxCell id="9onHXuLx7i9m2BNZTr_y-41" style="edgeStyle=orthogonalEdgeStyle;shape=link;rounded=0;orthogonalLoop=1;jettySize=auto;html=1;exitX=0.5;exitY=0;exitDx=0;exitDy=0;exitPerimeter=0;entryX=0.87;entryY=1;entryDx=0;entryDy=0;entryPerimeter=0;" edge="1" parent="1" source="9onHXuLx7i9m2BNZTr_y-34" target="9onHXuLx7i9m2BNZTr_y-14">
          <mxGeometry relative="1" as="geometry">
            <Array as="points">
              <mxPoint x="410" y="250" />
              <mxPoint x="96" y="250" />
            </Array>
          </mxGeometry>
        </mxCell>
        <mxCell id="9onHXuLx7i9m2BNZTr_y-45" style="edgeStyle=orthogonalEdgeStyle;shape=link;rounded=0;orthogonalLoop=1;jettySize=auto;html=1;exitX=0.5;exitY=0;exitDx=0;exitDy=0;exitPerimeter=0;" edge="1" parent="1" source="9onHXuLx7i9m2BNZTr_y-34" target="9onHXuLx7i9m2BNZTr_y-33">
          <mxGeometry relative="1" as="geometry" />
        </mxCell>
        <mxCell id="9onHXuLx7i9m2BNZTr_y-34" value="" style="shape=mxgraph.cisco.switches.workgroup_switch;sketch=0;html=1;pointerEvents=1;dashed=0;fillColor=#036897;strokeColor=#ffffff;strokeWidth=2;verticalLabelPosition=bottom;verticalAlign=top;align=center;outlineConnect=0;" vertex="1" parent="1">
          <mxGeometry x="360" y="320" width="101" height="50" as="geometry" />
        </mxCell>
        <mxCell id="9onHXuLx7i9m2BNZTr_y-38" style="edgeStyle=orthogonalEdgeStyle;shape=link;rounded=0;orthogonalLoop=1;jettySize=auto;html=1;exitX=0;exitY=0.98;exitDx=0;exitDy=0;exitPerimeter=0;entryX=0.87;entryY=1;entryDx=0;entryDy=0;entryPerimeter=0;" edge="1" parent="1" source="9onHXuLx7i9m2BNZTr_y-34" target="9onHXuLx7i9m2BNZTr_y-11">
          <mxGeometry relative="1" as="geometry" />
        </mxCell>
        <mxCell id="9onHXuLx7i9m2BNZTr_y-39" style="edgeStyle=orthogonalEdgeStyle;shape=link;rounded=0;orthogonalLoop=1;jettySize=auto;html=1;exitX=0;exitY=0.5;exitDx=0;exitDy=0;exitPerimeter=0;entryX=0.87;entryY=1;entryDx=0;entryDy=0;entryPerimeter=0;" edge="1" parent="1">
          <mxGeometry relative="1" as="geometry">
            <mxPoint x="359.9999999999998" y="344.5" as="sourcePoint" />
            <mxPoint x="96.13000000000011" y="480" as="targetPoint" />
            <Array as="points">
              <mxPoint x="360" y="359.5" />
              <mxPoint x="234" y="359.5" />
              <mxPoint x="234" y="500.5" />
              <mxPoint x="96" y="500.5" />
            </Array>
          </mxGeometry>
        </mxCell>
        <mxCell id="9onHXuLx7i9m2BNZTr_y-42" style="edgeStyle=orthogonalEdgeStyle;shape=link;rounded=0;orthogonalLoop=1;jettySize=auto;html=1;entryX=0.87;entryY=1;entryDx=0;entryDy=0;entryPerimeter=0;" edge="1" parent="1" target="9onHXuLx7i9m2BNZTr_y-15">
          <mxGeometry relative="1" as="geometry">
            <mxPoint x="390" y="320" as="sourcePoint" />
            <Array as="points">
              <mxPoint x="320" y="320" />
              <mxPoint x="320" y="152" />
            </Array>
          </mxGeometry>
        </mxCell>
        <mxCell id="9onHXuLx7i9m2BNZTr_y-43" value="Serveur Mail" style="text;strokeColor=none;align=center;fillColor=none;html=1;verticalAlign=middle;whiteSpace=wrap;rounded=0;" vertex="1" parent="1">
          <mxGeometry x="530" y="70" width="60" height="30" as="geometry" />
        </mxCell>
        <mxCell id="9onHXuLx7i9m2BNZTr_y-46" value="Routeur" style="text;strokeColor=none;align=center;fillColor=none;html=1;verticalAlign=middle;whiteSpace=wrap;rounded=0;" vertex="1" parent="1">
          <mxGeometry x="384.5" y="21.5" width="60" height="30" as="geometry" />
        </mxCell>
        <mxCell id="9onHXuLx7i9m2BNZTr_y-48" value="" style="shape=mxgraph.cisco.servers.file_server;sketch=0;html=1;pointerEvents=1;dashed=0;fillColor=#036897;strokeColor=#ffffff;strokeWidth=2;verticalLabelPosition=bottom;verticalAlign=top;align=center;outlineConnect=0;" vertex="1" parent="1">
          <mxGeometry x="603" y="91" width="43" height="58" as="geometry" />
        </mxCell>
        <mxCell id="9onHXuLx7i9m2BNZTr_y-49" style="edgeStyle=orthogonalEdgeStyle;shape=link;rounded=0;orthogonalLoop=1;jettySize=auto;html=1;exitX=0.5;exitY=1;exitDx=0;exitDy=0;exitPerimeter=0;entryX=0.98;entryY=0.5;entryDx=0;entryDy=0;entryPerimeter=0;" edge="1" parent="1" source="9onHXuLx7i9m2BNZTr_y-48" target="9onHXuLx7i9m2BNZTr_y-34">
          <mxGeometry relative="1" as="geometry">
            <Array as="points">
              <mxPoint x="624" y="340" />
              <mxPoint x="459" y="340" />
            </Array>
          </mxGeometry>
        </mxCell>
        <mxCell id="9onHXuLx7i9m2BNZTr_y-50" value="Serveur DHCP" style="text;strokeColor=none;align=center;fillColor=none;html=1;verticalAlign=middle;whiteSpace=wrap;rounded=0;" vertex="1" parent="1">
          <mxGeometry x="594.5" y="51.5" width="60" height="30" as="geometry" />
        </mxCell>
        <mxCell id="9onHXuLx7i9m2BNZTr_y-55" style="edgeStyle=orthogonalEdgeStyle;shape=link;rounded=0;orthogonalLoop=1;jettySize=auto;html=1;exitX=0.03;exitY=0.05;exitDx=0;exitDy=0;exitPerimeter=0;" edge="1" parent="1" source="9onHXuLx7i9m2BNZTr_y-54" target="9onHXuLx7i9m2BNZTr_y-34">
          <mxGeometry relative="1" as="geometry" />
        </mxCell>
        <mxCell id="9onHXuLx7i9m2BNZTr_y-54" value="" style="shape=mxgraph.cisco.wireless.wireless_transport;sketch=0;html=1;pointerEvents=1;dashed=0;fillColor=#036897;strokeColor=#ffffff;strokeWidth=2;verticalLabelPosition=bottom;verticalAlign=top;align=center;outlineConnect=0;" vertex="1" parent="1">
          <mxGeometry x="500" y="450" width="77" height="54" as="geometry" />
        </mxCell>
        <mxCell id="9onHXuLx7i9m2BNZTr_y-56" value="Point Acces Wifi" style="text;strokeColor=none;align=center;fillColor=none;html=1;verticalAlign=middle;whiteSpace=wrap;rounded=0;" vertex="1" parent="1">
          <mxGeometry x="508.5" y="410" width="60" height="30" as="geometry" />
        </mxCell>
        <mxCell id="9onHXuLx7i9m2BNZTr_y-59" value="" style="shape=mxgraph.cisco.modems_and_phones.cell_phone;sketch=0;html=1;pointerEvents=1;dashed=0;fillColor=#036897;strokeColor=#ffffff;strokeWidth=2;verticalLabelPosition=bottom;verticalAlign=top;align=center;outlineConnect=0;" vertex="1" parent="1">
          <mxGeometry x="720" y="585" width="34" height="58" as="geometry" />
        </mxCell>
        <mxCell id="9onHXuLx7i9m2BNZTr_y-60" value="" style="shape=mxgraph.cisco.modems_and_phones.cell_phone;sketch=0;html=1;pointerEvents=1;dashed=0;fillColor=#036897;strokeColor=#ffffff;strokeWidth=2;verticalLabelPosition=bottom;verticalAlign=top;align=center;outlineConnect=0;" vertex="1" parent="1">
          <mxGeometry x="766" y="585" width="34" height="58" as="geometry" />
        </mxCell>
      </root>
    </mxGraphModel>
  </diagram>
</mxfile>
